{"accessors" : [{"bufferView" : 0, "byteOffset" : 0, "componentType" : 5123, "count" : 40122, "type" : "SCALAR", "max" : [33331], "min" : [0]}, {"bufferView" : 1, "byteOffset" : 0, "componentType" : 5126, "count" : 33332, "type" : "VEC3", "max" : [15.157049179077148, 30.991413116455078, 109.70948791503906], "min" : [-31.71546173095703, -29.417964935302734, 0.07125929743051529], "name" : "POSITION"}, {"bufferView" : 1, "byteOffset" : 12, "componentType" : 5126, "count" : 33332, "type" : "VEC3", "max" : [0, 1, 0], "min" : [0, 1, 0], "name" : "NORMAL"}], "asset" : {"generator" : "Aspose.3D 24.1.0", "version" : "2.0"}, "buffers" : [{"uri" : "data:application/octet-stream;base64,", "byteLength" : 1043180}], "bufferViews" : [{"buffer" : 0, "byteOffset" : 0, "byteLength" : 80244, "target" : 34963}, {"buffer" : 0, "byteOffset" : 80248, "byteLength" : 962928, "byteStride" : 24, "target" : 34962}], "meshes" : [{"primitives" : [{"attributes" : {"POSITION" : 1, "NORMAL" : 2}, "indices" : 0, "mode" : 4}], "name" : ""}], "nodes" : [{"mesh" : 0, "name" : ""}], "scene" : 0, "scenes" : [{"nodes" : [0]}]}