<svg width="180" height="180" viewBox="0 0 180 180" fill="none" xmlns="http://www.w3.org/2000/svg">
    <g clip-path="url(#clip0_2515_9)">
        <path d="M64.95 153.86C70.5833 153.86 75.1767 152.907 78.73 151C82.2833 149.093 84.6233 147.663 85.75 146.71L101.09 169.46C99.8767 170.413 97.6233 171.757 94.33 173.49C91.0367 175.223 86.8333 176.74 81.72 178.04C76.6933 179.427 70.93 180.12 64.43 180.12C53.1633 180.12 43.0667 177.867 34.14 173.36C25.2133 168.767 18.15 162.267 12.95 153.86C7.83667 145.367 5.28 135.27 5.28 123.57C5.28 111.783 7.83667 101.687 12.95 93.28C18.15 84.8733 25.2133 78.4167 34.14 73.91C43.0667 69.4033 53.1633 67.15 64.43 67.15C70.8433 67.15 76.52 67.8433 81.46 69.23C86.4867 70.6167 90.69 72.22 94.07 74.04C97.45 75.7733 99.79 77.2033 101.09 78.33L85.36 101.21C84.7533 100.517 83.5833 99.5633 81.85 98.35C80.1167 97.1367 77.82 96.01 74.96 94.97C72.1867 93.93 68.85 93.41 64.95 93.41C60.1833 93.41 55.6333 94.6667 51.3 97.18C47.0533 99.6933 43.5867 103.203 40.9 107.71C38.2133 112.217 36.87 117.503 36.87 123.57C36.87 129.637 38.2133 134.967 40.9 139.56C43.5867 144.067 47.0533 147.577 51.3 150.09C55.6333 152.603 60.1833 153.86 64.95 153.86Z" fill="black"/>
    </g>
    <defs>
        <clipPath id="clip0_2515_9">
            <rect width="180" height="180" fill="white"/>
        </clipPath>
    </defs>
</svg>
