<svg width="180" height="180" viewBox="0 0 180 180" fill="none" xmlns="http://www.w3.org/2000/svg">
    <g clip-path="url(#clip0_2508_6)">
        <path d="M99.53 130.98C99.79 135.833 101.09 140.167 103.43 143.98C105.77 147.793 109.15 150.783 113.57 152.95C118.077 155.117 123.45 156.2 129.69 156.2C135.323 156.2 140.263 155.507 144.51 154.12C148.843 152.733 152.483 151.043 155.43 149.05C158.463 146.97 160.717 144.977 162.19 143.07L175.84 163.35C173.413 166.383 170.163 169.2 166.09 171.8C162.103 174.313 156.99 176.307 150.75 177.78C144.597 179.34 136.883 180.12 127.61 180.12C115.91 180.12 105.64 177.823 96.8 173.23C87.96 168.637 81.07 162.007 76.13 153.34C71.19 144.673 68.72 134.36 68.72 122.4C68.72 112 70.93 102.64 75.35 94.32C79.77 85.9133 86.1833 79.2833 94.59 74.43C103.083 69.5767 113.267 67.15 125.14 67.15C136.32 67.15 145.983 69.3167 154.13 73.65C162.363 77.8967 168.733 84.1367 173.24 92.37C177.747 100.603 180 110.657 180 122.53C180 123.223 179.957 124.653 179.87 126.82C179.87 128.9 179.783 130.287 179.61 130.98H99.53ZM149.06 110.57C148.973 107.797 148.107 104.807 146.46 101.6C144.9 98.3933 142.43 95.6633 139.05 93.41C135.67 91.1567 131.163 90.03 125.53 90.03C119.897 90.03 115.26 91.1133 111.62 93.28C108.067 95.4467 105.38 98.1333 103.56 101.34C101.74 104.46 100.7 107.537 100.44 110.57H149.06Z" fill="black"/>
    </g>
    <defs>
        <clipPath id="clip0_2508_6">
            <rect width="180" height="180" fill="white"/>
        </clipPath>
    </defs>
</svg>
