<svg width="180" height="180" viewBox="0 0 180 180" fill="none" xmlns="http://www.w3.org/2000/svg">
    <path d="M87.084 74.5015H106.102V45.846C106.102 35.3947 108.158 26.828 112.27 20.146C116.382 13.3783 121.693 8.36682 128.204 5.11149C134.715 1.77049 141.44 0.0999877 148.379 0.0999877C156.86 0.0999877 163.37 1.25649 167.911 3.5695C172.451 5.88249 175.235 7.55299 176.263 8.58099L163.67 32.739C163.242 32.1393 162.042 31.197 160.072 29.912C158.187 28.5413 155.66 27.856 152.491 27.856C150.263 27.856 148.079 28.4128 145.937 29.5265C143.795 30.6402 142.039 32.6962 140.669 35.6945C139.298 38.6928 138.613 43.1047 138.613 48.93V74.5015H166.24V101.615H138.613V180H106.102V101.615H87.084V74.5015Z" fill="black"/>
</svg>
