<svg width="180" height="180" viewBox="0 0 180 180" fill="none" xmlns="http://www.w3.org/2000/svg">
    <g clip-path="url(#clip0_2508_4)">
        <path d="M33.719 180H0.314001V-0.256006H33.719V180Z" fill="black"/>
        <path d="M143.94 179V160.41C143.16 162.317 141.167 165.003 137.96 168.47C134.753 171.937 130.42 175.1 124.96 177.96C119.587 180.733 113.26 182.12 105.98 182.12C95.7533 182.12 86.6967 179.693 78.81 174.84C70.9233 169.9 64.7267 163.183 60.22 154.69C55.8 146.11 53.59 136.447 53.59 125.7C53.59 114.953 55.8 105.333 60.22 96.84C64.7267 88.26 70.9233 81.5 78.81 76.56C86.6967 71.62 95.7533 69.15 105.98 69.15C113.087 69.15 119.24 70.3633 124.44 72.79C129.727 75.13 133.973 77.9033 137.18 81.11C140.473 84.23 142.597 87.0467 143.55 89.56V72.27H176.31V179H143.94ZM85.96 125.7C85.96 131.68 87.3033 136.967 89.99 141.56C92.6767 146.067 96.23 149.577 100.65 152.09C105.07 154.603 109.88 155.86 115.08 155.86C120.54 155.86 125.393 154.603 129.64 152.09C133.887 149.49 137.223 145.937 139.65 141.43C142.163 136.837 143.42 131.593 143.42 125.7C143.42 119.807 142.163 114.607 139.65 110.1C137.223 105.507 133.887 101.91 129.64 99.31C125.393 96.71 120.54 95.41 115.08 95.41C109.88 95.41 105.07 96.71 100.65 99.31C96.23 101.823 92.6767 105.377 89.99 109.97C87.3033 114.477 85.96 119.72 85.96 125.7Z" fill="black"/>
    </g>
    <defs>
        <clipPath id="clip0_2508_4">
            <rect width="180" height="180" fill="white"/>
        </clipPath>
    </defs>
</svg>
