<svg width="180" height="180" viewBox="0 0 180 180" fill="none" xmlns="http://www.w3.org/2000/svg">
    <path d="M92.304 64.968H98.864L77.776 115.144H71.216L92.304 64.968ZM95.138 109.768C93.7087 109.768 92.482 109.256 91.458 108.232C90.434 107.208 89.922 105.981 89.922 104.552C89.922 103.08 90.434 101.832 91.458 100.808C92.482 99.784 93.7087 99.272 95.138 99.272C96.61 99.272 97.8473 99.784 98.85 100.808C99.874 101.832 100.386 103.08 100.386 104.552C100.386 105.981 99.874 107.208 98.85 108.232C97.8473 109.256 96.61 109.768 95.138 109.768Z" fill="black"/>
</svg>
