<svg width="180" height="180" viewBox="0 0 180 180" fill="none" xmlns="http://www.w3.org/2000/svg">
    <g clip-path="url(#clip0_2508_5)">
        <path d="M139.58 70.15C147.553 70.15 154.487 71.84 160.38 75.22C166.36 78.6 170.997 83.8 174.29 90.82C177.67 97.7533 179.36 106.68 179.36 117.6V180H146.86V122.93C146.86 113.917 145.517 106.897 142.83 101.87C140.23 96.8433 135.247 94.33 127.88 94.33C123.72 94.33 119.907 95.4567 116.44 97.71C112.973 99.8767 110.2 103.083 108.12 107.33C106.127 111.577 105.13 116.777 105.13 122.93V180H74.71V122.93C74.71 113.917 73.1933 106.897 70.16 101.87C67.1267 96.8433 62.3167 94.33 55.73 94.33C51.4833 94.33 47.6267 95.4133 44.16 97.58C40.78 99.7467 38.0933 102.953 36.1 107.2C34.1933 111.36 33.24 116.603 33.24 122.93V180H0.48V73.27H33.24V88.87C34.1933 86.1833 36.36 83.41 39.74 80.55C43.2067 77.69 47.4967 75.2633 52.61 73.27C57.7233 71.19 63.2267 70.15 69.12 70.15C75.5333 70.15 80.8633 71.2333 85.11 73.4C89.3567 75.5667 92.78 78.34 95.38 81.72C98.0667 85.0133 100.103 88.48 101.49 92.12C102.703 88.74 105.087 85.36 108.64 81.98C112.193 78.6 116.657 75.7833 122.03 73.53C127.403 71.2767 133.253 70.15 139.58 70.15Z" fill="black"/>
    </g>
    <defs>
        <clipPath id="clip0_2508_5">
            <rect width="180" height="180" fill="white"/>
        </clipPath>
    </defs>
</svg>
