<svg width="180" height="180" viewBox="0 0 180 180" fill="none" xmlns="http://www.w3.org/2000/svg">
    <g clip-path="url(#clip0_2676_2)">
        <path class="draw-me" id="letter" d="M139.58 70.15C147.553 70.15 154.487 71.84 160.38 75.22C166.36 78.6 170.997 83.8 174.29 90.82C177.67 97.7533 179.36 106.68 179.36 117.6V180H146.86V122.93C146.86 113.917 145.517 106.897 142.83 101.87C140.23 96.8433 135.247 94.33 127.88 94.33C123.72 94.33 119.907 95.4567 116.44 97.71C112.973 99.8767 110.2 103.083 108.12 107.33C106.127 111.577 105.13 116.777 105.13 122.93V180H74.71V122.93C74.71 113.917 73.1933 106.897 70.16 101.87C67.1267 96.8433 62.3167 94.33 55.73 94.33C51.4833 94.33 47.6267 95.4133 44.16 97.58C40.78 99.7467 38.0933 102.953 36.1 107.2C34.1933 111.36 33.24 116.603 33.24 122.93V180H0.48V73.27H33.24V88.87C34.1933 86.1833 36.36 83.41 39.74 80.55C43.2067 77.69 47.4967 75.2633 52.61 73.27C57.7233 71.19 63.2267 70.15 69.12 70.15C75.5333 70.15 80.8633 71.2333 85.11 73.4C89.3567 75.5667 92.78 78.34 95.38 81.72C98.0667 85.0133 100.103 88.48 101.49 92.12C102.703 88.74 105.087 85.36 108.64 81.98C112.193 78.6 116.657 75.7833 122.03 73.53C127.403 71.2767 133.253 70.15 139.58 70.15Z" fill="black"/>
        <path visibility="hidden" id="hand" fill-rule="evenodd" clip-rule="evenodd" d="M143.839 132.285C143.839 132.285 103.877 133.078 109.443 150.486C115.009 167.897 126.568 159.422 135.09 163.149C142.244 166.277 120.299 185.294 115.009 192.034C115.009 187.384 131.079 174.718 132.902 167.204C120.073 186.472 104.926 181.371 96.9151 164.476C96.9151 164.476 97.3568 187.013 85.6273 188.596C73.8979 190.178 60.8972 170.233 58.1141 156.976C55.3311 143.722 57.1021 120.564 51.536 105.924C45.9699 91.2827 42.8405 46.8175 22.1626 50.7735C1.48465 54.7295 26.7353 121.746 25.742 139.803C24.562 161.217 45.0471 223.906 66.3015 242.681C70.9282 246.767 58.2593 259.952 61.4405 273.405C64.6217 286.858 134.696 289.767 146.228 275.918C157.761 262.069 136.197 246.101 150.511 237C164.826 227.9 170.882 201.53 178.038 184.119C185.195 166.709 170.882 149.3 165.313 141.386C159.747 133.472 143.841 132.285 143.841 132.285H143.839ZM165.311 17.1404C168.582 40.4491 157.582 116.244 159.254 134.658C151.153 130.859 143.487 129.443 132.415 131.773C122.24 133.915 115.042 134.927 110.384 139.551C102.442 147.44 110.424 168.157 128.485 164.963C131.351 164.455 128.599 171.672 123.532 174.982C117.792 178.731 111.954 180.015 103.543 170.456C95.8471 161.71 92.7405 136.239 92.7405 136.239C90.6522 140.888 100.395 177.687 88.3668 185.106C82.7489 188.571 53.7135 177.202 58.3485 118.391C59.7027 101.205 88.3233 99.3928 88.8936 107.8C89.4639 116.207 92.3423 126.74 92.3423 126.74C92.3423 126.74 90.8201 119.594 91.7845 105.518C92.7488 91.4416 125.148 84.7967 125.745 103.988C126.342 123.18 126.442 128.026 126.442 128.026C126.66 127.727 127.549 100.394 128.711 94.8796C132.562 76.604 137.435 20.535 138.821 13.2566C141.608 -1.40141 161.336 -11.1954 165.311 17.1342V17.1404Z" fill="black"/>
    </g>
    <defs>
        <clipPath id="clip0_2676_2">
            <rect width="180" height="180" fill="white"/>
        </clipPath>
    </defs>
</svg>
