<svg width="179" height="179" viewBox="0 0 179 179" fill="none" xmlns="http://www.w3.org/2000/svg">
    <g clip-path="url(#clip0_2515_8)">
        <path d="M127.08 70.15C134.36 70.15 141.467 71.6667 148.4 74.7C155.333 77.6467 161.01 82.37 165.43 88.87C169.937 95.37 172.19 103.863 172.19 114.35V180H139.04V120.07C139.04 111.317 136.96 104.817 132.8 100.57C128.727 96.3233 123.353 94.2 116.68 94.2C112.347 94.2 108.187 95.4133 104.2 97.84C100.3 100.18 97.0933 103.473 94.58 107.72C92.1533 111.88 90.94 116.647 90.94 122.02V180H57.92V73.27H90.94V90.3C91.8933 87.3533 94.06 84.32 97.44 81.2C100.82 78.08 105.11 75.48 110.31 73.4C115.51 71.2333 121.1 70.15 127.08 70.15Z" fill="black"/>
    </g>
    <defs>
        <clipPath id="clip0_2515_8">
            <rect width="179" height="179" fill="white"/>
        </clipPath>
    </defs>
</svg>
