<svg width="180" height="180" viewBox="0 0 180 180" fill="none" xmlns="http://www.w3.org/2000/svg">
    <g clip-path="url(#clip0_2515_11)">
        <path d="M121.35 180.12C109.997 180.12 99.8567 177.693 90.93 172.84C82.09 167.987 75.1567 161.357 70.13 152.95C65.1033 144.457 62.59 134.793 62.59 123.96C62.59 113.127 65.1033 103.463 70.13 94.97C75.1567 86.39 82.09 79.63 90.93 74.69C99.8567 69.6633 109.997 67.15 121.35 67.15C132.79 67.15 142.887 69.6633 151.64 74.69C160.393 79.63 167.24 86.39 172.18 94.97C177.12 103.463 179.59 113.127 179.59 123.96C179.59 134.793 177.12 144.457 172.18 152.95C167.24 161.357 160.393 167.987 151.64 172.84C142.887 177.693 132.79 180.12 121.35 180.12ZM121.35 152.69C126.81 152.69 131.533 151.477 135.52 149.05C139.593 146.537 142.713 143.113 144.88 138.78C147.133 134.36 148.26 129.377 148.26 123.83C148.26 118.283 147.133 113.3 144.88 108.88C142.713 104.46 139.593 100.993 135.52 98.48C131.533 95.88 126.81 94.58 121.35 94.58C115.89 94.58 111.123 95.88 107.05 98.48C103.063 100.993 99.9433 104.46 97.69 108.88C95.4367 113.3 94.31 118.283 94.31 123.83C94.31 129.377 95.4367 134.36 97.69 138.78C99.9433 143.113 103.063 146.537 107.05 149.05C111.123 151.477 115.89 152.69 121.35 152.69Z" fill="black"/>
    </g>
    <defs>
        <clipPath id="clip0_2515_11">
            <rect width="180" height="180" fill="white"/>
        </clipPath>
    </defs>
</svg>
