<?xml version="1.0" encoding="UTF-8"?>
<svg id="Calque_2" data-name="Calque 2" xmlns="http://www.w3.org/2000/svg" viewBox="0 0 800.45 1385.88">

  <g id="Layer_1" data-name="Layer 1">
    <path id="hand" class="cls-1" d="M626.09,645.84s-192.7,3.84-165.86,88.2c26.84,84.37,82.58,43.3,123.67,61.36,34.5,15.16-71.32,107.31-96.83,139.97,0-22.53,77.49-83.91,86.28-120.32-61.86,93.37-134.9,68.65-173.53-13.22,0,0,2.13,109.21-54.43,116.88-56.56,7.67-119.25-88.98-132.67-153.22-13.42-64.23-4.88-176.45-31.72-247.39-26.84-70.95-41.93-286.42-141.64-267.25-99.71,19.17,22.05,343.92,17.26,431.42-5.69,103.77,93.09,407.55,195.58,498.53,22.31,19.8-38.78,83.69-23.44,148.88,15.34,65.19,353.24,79.29,408.85,12.18,55.61-67.11-48.37-144.49,20.65-188.59,69.03-44.1,98.23-171.88,132.74-256.25,34.51-84.37-34.51-168.73-61.36-207.08-26.84-38.35-103.54-44.1-103.54-44.1h0ZM729.63,87.87c15.77,112.95-37.27,480.24-29.21,569.47-39.06-18.41-76.03-25.27-129.42-13.98-49.06,10.38-83.77,15.28-106.23,37.69-38.3,38.23.19,138.62,87.28,123.14,13.82-2.46.55,32.51-23.88,48.55-27.68,18.17-55.83,24.39-96.39-21.93-37.11-42.38-52.09-165.81-52.09-165.81-10.07,22.53,36.91,200.85-21.09,236.8-27.09,16.79-167.1-38.3-144.75-323.29,6.53-83.28,144.54-92.06,147.29-51.32,2.75,40.74,16.63,91.78,16.63,91.78,0,0-7.34-34.63-2.69-102.84s160.88-100.41,163.76-7.41c2.88,93,3.36,116.48,3.36,116.48,1.05-1.45,5.34-133.9,10.94-160.62,18.57-88.56,42.07-360.26,48.75-395.53,13.44-71.03,108.57-118.49,127.74,18.79Z"/>
  </g>
</svg>